<?xml version="1.0" standalone="no"?>
<!DOCTYPE svg PUBLIC "-//W3C//DTD SVG 20010904//EN"
 "http://www.w3.org/TR/2001/REC-SVG-20010904/DTD/svg10.dtd">
<svg version="1.0" xmlns="http://www.w3.org/2000/svg"
 width="1024.000000pt" height="1024.000000pt" viewBox="0 0 1024.000000 1024.000000"
 preserveAspectRatio="xMidYMid meet">
<metadata>
Created by potrace 1.14, written by Peter Selinger 2001-2017
</metadata>
<g transform="translate(0.000000,1024.000000) scale(0.100000,-0.100000)"
fill="#000000" stroke="none">
<path d="M4405 9557 c-44 -23 -81 -45 -83 -49 -2 -5 -8 -8 -14 -8 -5 0 -20 -8
-33 -17 -12 -10 -33 -25 -45 -33 -12 -8 -30 -22 -40 -30 -10 -8 -35 -28 -56
-45 -74 -57 -215 -206 -284 -300 -39 -52 -70 -98 -70 -102 0 -3 -6 -14 -14
-22 -19 -23 -97 -171 -89 -171 3 0 -1 -8 -10 -18 -9 -10 -20 -33 -23 -50 -4
-18 -10 -32 -15 -32 -5 0 -8 -3 -7 -7 2 -7 -23 -92 -39 -133 -8 -20 -7 -17
-23 -85 -7 -33 -14 -69 -16 -80 -1 -11 -3 -20 -4 -20 -2 0 -8 -31 -15 -85 -8
-56 -13 -380 -5 -380 3 0 6 -15 6 -32 1 -18 4 -51 7 -73 4 -22 9 -56 12 -75 3
-19 8 -42 11 -50 14 -36 42 -155 38 -161 -2 -4 0 -9 4 -11 7 -2 70 -203 76
-243 1 -5 4 -14 7 -20 6 -10 18 -52 26 -95 2 -13 8 -29 13 -35 4 -5 8 -12 8
-15 0 -3 5 -25 12 -49 6 -25 13 -54 14 -65 2 -12 8 -32 14 -46 6 -14 17 -45
23 -70 7 -25 13 -47 14 -50 1 -3 9 -29 18 -59 9 -29 14 -57 11 -62 -3 -5 -1
-9 5 -9 5 0 12 -18 16 -40 4 -22 11 -42 15 -45 5 -3 7 -14 5 -25 -2 -11 1 -20
6 -20 6 0 8 -4 4 -9 -3 -5 0 -13 6 -16 5 -4 8 -12 6 -19 -2 -6 0 -22 6 -36 5
-14 11 -30 12 -35 3 -13 33 -113 57 -189 10 -33 18 -67 18 -76 0 -9 3 -20 7
-24 4 -3 8 -12 9 -19 2 -10 59 -212 68 -242 2 -5 5 -14 6 -20 2 -5 11 -35 22
-65 10 -30 18 -56 18 -57 0 -2 0 -4 1 -5 0 -2 3 -16 5 -33 3 -16 9 -34 14 -40
4 -5 10 -23 13 -40 3 -16 12 -50 21 -74 9 -23 17 -55 17 -70 2 -27 -87 -261
-104 -272 -5 -3 -8 -10 -7 -15 3 -16 -34 -114 -43 -114 -4 0 -6 -4 -3 -8 3 -5
-1 -19 -7 -33 -16 -31 -78 -187 -81 -202 -1 -7 -9 -28 -18 -47 -9 -19 -28 -66
-44 -104 -34 -83 -97 -156 -161 -186 -27 -12 -52 -23 -58 -24 -5 -1 -14 -4
-20 -7 -5 -4 -44 -6 -85 -5 -60 2 -86 8 -130 30 -58 30 -155 121 -145 137 4 5
2 9 -4 9 -9 0 -25 38 -37 91 -11 44 -10 1199 1 1199 7 0 7 3 0 8 -9 6 -13 572
-5 607 1 6 1 15 0 20 -8 31 -6 92 2 103 6 6 7 12 2 12 -11 0 -12 95 -2 105 4
4 4 15 -1 24 -4 9 -6 36 -5 61 4 57 4 49 1 153 -1 49 1 91 5 93 5 3 5 11 1 17
-4 6 -8 97 -10 202 -3 209 -5 237 -15 245 -4 3 -9 15 -11 25 -11 57 -65 146
-129 215 -36 39 -120 100 -137 100 -6 0 -11 4 -11 8 0 5 -34 19 -75 31 -82 26
-182 33 -254 19 -25 -5 -54 -10 -63 -11 -10 -1 -18 -6 -18 -11 0 -5 -3 -6 -6
-3 -15 14 -150 -70 -210 -130 -60 -61 -126 -169 -140 -233 -3 -14 -9 -43 -14
-65 -6 -31 -16 -601 -11 -662 2 -29 2 -43 2 -168 0 -157 0 -144 -2 -229 -2
-60 1 -70 17 -76 10 -4 28 -5 39 -3 11 2 31 6 45 8 14 1 25 4 25 5 0 1 10 3
22 6 84 15 273 137 273 175 0 7 3 9 6 6 4 -3 14 4 24 16 24 32 80 133 85 154
3 10 12 43 21 73 28 96 16 257 -27 357 -10 23 -15 43 -11 43 4 0 2 4 -4 8 -6
4 -25 28 -42 53 -33 49 -106 129 -117 129 -4 0 -13 6 -21 14 -12 12 -12 21 3
66 19 59 68 113 122 136 41 17 120 21 147 6 11 -6 22 -9 26 -9 13 4 78 -56
100 -91 l23 -37 2 -1095 c3 -1577 6 -1754 28 -1790 4 -6 9 -23 11 -38 11 -60
78 -177 140 -244 19 -20 34 -42 34 -48 0 -5 6 -10 13 -10 6 0 26 -13 42 -28
36 -33 85 -65 85 -56 0 4 9 -3 19 -15 11 -12 23 -22 28 -22 4 0 44 -11 88 -26
65 -21 101 -26 190 -27 88 -1 111 -4 116 -16 9 -21 0 -115 -16 -170 -1 -3 -6
-22 -12 -43 -15 -48 -81 -167 -94 -167 -5 0 -13 -8 -16 -17 -4 -10 -22 -31
-41 -48 -19 -16 -46 -40 -60 -52 -14 -13 -31 -23 -38 -23 -8 0 -14 -4 -14 -10
0 -5 -6 -10 -14 -10 -8 0 -36 -11 -62 -24 -26 -13 -53 -22 -60 -19 -6 2 -16
-2 -20 -9 -5 -7 -9 -232 -9 -500 0 -482 0 -488 20 -489 111 -2 246 -53 332
-123 46 -37 114 -115 130 -148 10 -21 21 -38 26 -38 4 0 7 -6 7 -13 0 -7 9
-32 20 -54 11 -23 21 -55 22 -73 1 -17 5 -33 8 -35 3 -2 5 -24 5 -49 -1 -29 3
-47 12 -50 7 -3 13 -1 13 4 0 5 6 7 13 5 22 -9 107 -11 107 -2 0 4 8 3 18 -2
11 -6 24 -6 35 0 11 7 17 7 17 0 0 -10 32 -7 50 4 6 3 10 3 10 -2 0 -4 11 -8
25 -8 14 0 25 3 25 7 0 4 14 3 30 -2 19 -5 30 -5 30 1 0 6 6 6 18 0 11 -6 24
-6 35 0 11 7 17 7 17 0 0 -10 32 -7 50 4 6 3 10 2 10 -3 0 -10 36 -9 46 0 3 4
17 3 30 -2 15 -6 26 -6 30 1 3 6 10 6 17 1 7 -5 21 -6 32 -2 11 4 30 4 42 -1
13 -5 25 -4 28 1 3 6 15 6 29 0 15 -5 27 -5 34 2 6 6 12 6 16 -1 5 -7 15 -7
32 -1 14 6 23 6 20 2 -3 -5 10 -8 29 -8 18 1 31 4 28 8 -2 5 7 4 20 -1 16 -6
28 -6 36 2 6 6 11 7 11 1 0 -7 24 -9 74 -5 4 1 6 10 3 21 -3 11 -1 23 5 26 7
4 7 9 0 13 -6 4 -13 18 -16 33 -7 41 -38 100 -68 132 -16 16 -28 33 -28 38 0
5 -4 7 -9 4 -5 -3 -15 1 -22 10 -15 18 -72 44 -114 51 -16 3 -31 9 -33 14 -2
5 -11 5 -21 -1 -10 -5 -21 -7 -23 -5 -5 5 -53 6 -223 4 -162 -1 -164 -1 -188
27 -22 27 -65 74 -138 152 -22 23 -37 47 -34 52 3 6 -1 7 -9 4 -9 -3 -16 -2
-16 3 0 5 -23 33 -51 63 -51 53 -93 124 -105 176 -8 37 -8 130 0 168 15 64 97
186 126 186 5 0 10 5 10 10 0 13 43 8 61 -6 8 -6 40 -25 72 -43 31 -18 64 -39
72 -47 8 -9 15 -13 15 -9 0 5 49 -23 60 -35 3 -3 19 -12 35 -20 26 -13 61 -34
130 -78 11 -7 34 -19 52 -27 17 -8 34 -19 38 -24 3 -6 26 -20 50 -32 25 -12
45 -27 45 -31 0 -5 5 -6 10 -3 6 3 10 2 10 -3 0 -5 8 -12 18 -15 26 -9 106
-58 114 -71 4 -6 8 -7 8 -3 0 4 10 2 23 -5 48 -27 87 -34 166 -32 45 1 89 8
97 14 7 7 23 10 34 7 11 -3 18 -1 15 4 -3 4 12 17 35 29 22 11 40 25 40 30 0
6 7 10 15 10 8 0 15 8 15 17 0 9 3 13 7 10 7 -7 20 13 55 83 25 52 27 59 37
120 14 94 -26 222 -91 292 -33 36 -111 144 -109 153 1 3 -8 15 -19 27 -11 12
-20 28 -20 35 0 7 -4 13 -10 13 -5 0 -10 9 -10 20 0 11 -4 20 -10 20 -5 0 -10
9 -10 19 0 11 -3 21 -7 23 -9 4 -71 155 -75 183 -2 11 -6 22 -10 25 -4 3 -9
17 -11 30 -3 14 -10 45 -17 69 -6 23 -9 50 -6 58 3 8 2 11 -3 8 -6 -3 -10 7
-10 22 0 16 -3 44 -6 63 -10 51 -10 283 -1 363 8 75 9 82 25 147 7 25 14 54
16 64 6 28 25 88 34 111 21 51 28 71 30 77 1 5 16 36 33 70 18 35 31 66 30 71
-1 4 3 7 8 7 6 0 10 5 10 10 0 6 24 45 53 87 28 42 57 82 62 91 30 46 196 212
206 206 4 -2 10 5 14 15 3 11 14 22 23 25 9 3 29 17 45 31 15 14 27 23 27 20
0 -3 12 6 27 20 15 14 33 25 40 25 6 0 13 3 15 8 6 15 68 43 80 36 6 -4 8 -3
5 3 -6 10 43 37 59 33 4 -1 10 2 13 7 10 15 151 67 240 89 9 2 35 8 59 14 24
6 47 8 53 5 5 -4 15 -3 22 2 6 4 19 9 27 12 8 2 357 6 775 7 418 2 785 7 815
10 30 4 61 7 68 7 6 0 12 3 12 6 0 4 21 13 46 20 68 20 234 140 234 168 0 6 9
18 20 28 37 33 100 186 105 255 1 14 3 25 5 25 1 0 3 264 4 587 1 670 12 605
-93 542 -90 -55 -92 -57 -147 -111 -95 -93 -96 -98 -95 -385 1 -251 0 -256
-34 -248 -5 1 -14 2 -20 1 -53 -6 -214 -6 -226 0 -9 5 -20 5 -24 1 -10 -11
-59 -8 -67 3 -5 7 -8 7 -8 0 0 -11 -119 -13 -137 -2 -6 4 -14 4 -17 -1 -4 -7
-71 -9 -86 -2 -3 1 -9 1 -15 0 -28 -7 -185 -4 -185 3 0 6 -5 5 -12 0 -15 -11
-58 -11 -75 0 -7 5 -13 4 -13 0 0 -10 -41 -10 -57 0 -5 4 -13 3 -17 -1 -8 -8
-175 -10 -177 -2 -1 3 -3 21 -4 40 -7 105 -26 199 -58 295 -9 28 -17 54 -16
59 0 5 -3 12 -8 15 -16 11 -52 89 -45 97 4 4 1 4 -5 0 -7 -4 -13 -2 -13 4 0 7
-13 29 -30 50 -16 20 -27 40 -23 44 3 3 -1 6 -10 6 -9 0 -17 4 -17 8 0 14 -94
106 -144 142 -25 19 -46 38 -46 43 0 6 -3 8 -6 4 -3 -3 -24 5 -45 19 -21 13
-40 24 -43 24 -2 0 -25 10 -52 22 -27 12 -56 23 -64 24 -8 2 -16 8 -18 14 -2
5 -8 8 -13 5 -7 -5 -52 10 -134 46 -34 14 -169 61 -192 66 -13 3 -23 10 -23
16 0 6 -3 8 -6 5 -3 -3 -29 3 -57 14 -29 11 -86 31 -127 46 -41 15 -77 29 -80
32 -3 3 -12 6 -20 8 -70 13 -167 97 -205 179 -24 50 -42 173 -29 195 3 4 18 1
35 -7 16 -9 29 -13 29 -10 0 3 10 0 23 -7 12 -7 24 -12 27 -13 4 0 71 -24 120
-42 8 -3 20 -7 25 -9 6 -1 38 -14 71 -28 60 -25 93 -34 144 -40 14 -2 30 -5
35 -6 6 -1 13 -1 18 0 12 4 20 6 64 14 24 4 45 12 49 17 3 5 10 7 15 4 5 -4 9
-2 9 4 0 5 9 12 19 16 26 8 91 76 118 124 20 36 20 41 6 53 -9 7 -19 12 -22
11 -11 -5 -106 30 -113 41 -4 6 -8 8 -8 4 0 -8 -218 68 -235 82 -7 6 -14 7
-17 4 -3 -3 -26 15 -52 39 -49 48 -91 127 -83 158 3 10 2 21 -3 24 -6 4 -6 70
0 70 1 0 4 9 5 20 5 51 61 132 110 162 69 43 156 60 204 41 14 -6 33 -12 41
-13 22 -3 203 -67 215 -76 6 -4 22 -10 35 -13 14 -2 42 -12 64 -21 21 -9 40
-14 42 -12 13 13 21 72 17 123 -2 33 -5 65 -5 72 -1 6 -4 12 -8 12 -3 0 -6 9
-7 20 -2 30 -58 105 -106 142 -48 39 -71 50 -177 84 -41 14 -88 31 -105 39
-16 7 -43 17 -60 21 -16 4 -36 11 -42 17 -7 5 -13 7 -13 4 0 -4 -21 3 -47 14
-27 12 -55 22 -63 24 -22 5 -212 72 -270 95 -28 11 -50 17 -50 15 0 -3 -12 1
-27 8 -16 8 -64 26 -108 41 -44 15 -89 32 -100 37 -11 5 -29 11 -40 14 -11 2
-101 33 -200 68 -99 36 -189 67 -200 70 -13 4 -48 -8 -100 -36z"/>
<path d="M7125 9059 c-57 -63 -88 -149 -86 -239 1 -57 23 -131 50 -166 9 -12
23 -32 31 -44 8 -13 23 -32 33 -42 9 -10 17 -22 17 -28 0 -5 8 -17 18 -27 11
-10 52 -63 93 -118 41 -55 80 -106 87 -113 6 -7 12 -15 12 -17 0 -4 -97 -80
-128 -100 -8 -5 -23 -17 -32 -25 -10 -8 -30 -24 -44 -35 -15 -11 -33 -26 -41
-32 -7 -7 -19 -13 -25 -13 -6 0 -8 -4 -5 -10 3 -5 0 -10 -9 -10 -8 0 -16 -4
-18 -8 -1 -5 -30 -28 -63 -52 -33 -24 -71 -54 -85 -67 -14 -13 -28 -23 -31
-23 -3 0 -17 -10 -30 -21 -27 -24 -166 -133 -209 -164 -53 -38 -105 -79 -122
-96 -9 -9 -23 -19 -30 -22 -9 -4 1 -17 27 -39 71 -58 245 -239 245 -255 0 -2
11 -19 24 -36 39 -51 96 -164 127 -249 15 -43 25 -78 22 -78 -3 0 -1 -6 5 -13
6 -7 12 -24 14 -37 2 -14 9 -34 16 -45 11 -19 11 -19 12 -1 0 11 3 17 6 13 3
-3 14 2 23 11 27 26 61 52 66 52 3 0 13 8 23 18 11 9 32 26 47 37 16 11 33 25
39 30 6 6 36 29 66 51 30 23 65 50 77 60 12 11 34 28 49 39 15 11 32 25 38 30
36 34 120 89 129 87 7 -2 9 0 5 4 -4 4 5 17 21 28 155 113 234 188 283 272 37
64 70 149 60 158 -3 3 -1 6 4 6 19 0 22 199 3 270 -21 84 -78 202 -110 230 -3
3 -61 79 -129 170 -68 91 -128 170 -132 175 -5 6 -36 46 -69 90 -32 44 -65 87
-72 95 -6 8 -66 88 -132 177 -66 89 -123 162 -126 163 -4 0 -23 -18 -44 -41z"/>
<path d="M6376 4803 c-2 -2 -25 -6 -52 -8 -79 -8 -117 -14 -156 -24 -20 -5
-39 -6 -42 -3 -3 2 -11 0 -18 -5 -11 -8 -47 -18 -150 -39 -5 -1 -9 -2 -10 -4
-2 -1 -11 -3 -21 -5 -10 -2 -84 -25 -165 -51 -81 -26 -150 -47 -154 -46 -5 1
-8 -3 -8 -10 0 -6 -3 -8 -7 -5 -3 4 -11 3 -17 -1 -6 -5 -33 -17 -61 -27 -27
-9 -63 -23 -80 -30 -16 -7 -58 -24 -92 -38 -35 -15 -63 -23 -63 -19 0 4 -4 2
-8 -4 -6 -10 -74 -44 -239 -120 -28 -13 -55 -29 -58 -34 -4 -6 -10 -8 -13 -6
-4 2 -19 -5 -32 -16 -14 -11 -20 -17 -14 -14 9 5 39 -42 34 -53 -1 -2 2 -7 7
-10 18 -13 73 -100 73 -115 0 -9 5 -16 11 -16 5 0 15 -13 20 -30 6 -16 15 -30
20 -30 5 0 9 -7 9 -15 0 -8 5 -15 12 -15 6 0 9 -3 5 -6 -3 -4 5 -21 18 -39 14
-17 25 -37 25 -43 0 -7 4 -12 8 -12 5 0 17 -18 27 -40 10 -22 21 -40 25 -40 5
0 11 -11 14 -24 5 -21 12 -24 58 -25 110 -2 229 -40 294 -93 80 -67 123 -120
156 -193 58 -126 66 -250 25 -375 -6 -19 -11 -39 -12 -43 0 -5 -9 -15 -19 -23
-11 -8 -14 -14 -7 -14 7 0 9 -5 4 -12 -12 -20 -10 -32 9 -49 10 -9 15 -19 11
-23 -3 -3 -1 -6 6 -6 7 0 9 -4 6 -10 -3 -5 -2 -10 2 -10 5 0 33 -42 63 -92 30
-51 58 -94 62 -96 5 -2 8 -10 8 -17 0 -8 7 -21 16 -29 8 -9 12 -16 7 -16 -4 0
-3 -4 3 -8 11 -7 165 -252 188 -299 6 -13 14 -23 19 -23 4 0 7 -5 7 -12 0 -6
11 -26 26 -45 14 -18 22 -33 19 -33 -4 0 3 -12 14 -26 11 -15 18 -30 15 -35
-3 -5 0 -8 7 -7 7 2 13 -1 14 -7 0 -5 17 -36 38 -68 21 -32 51 -81 67 -110 47
-81 56 -90 84 -85 14 3 30 1 37 -3 7 -4 21 -3 31 2 12 6 18 6 18 0 0 -6 11 -6
30 -1 17 5 28 5 25 1 -2 -5 9 -8 25 -7 17 1 30 5 30 9 0 4 8 3 18 -2 10 -5 24
-6 32 -1 7 4 24 4 36 0 14 -6 26 -5 29 0 4 6 13 7 23 1 11 -6 24 -6 34 0 10 6
19 6 23 0 4 -7 15 -7 30 -1 14 5 25 6 25 2 0 -4 11 -7 25 -7 14 0 25 4 25 8 0
5 5 5 12 1 15 -9 60 -10 74 -1 5 3 16 2 24 -3 7 -4 24 -4 37 1 13 5 22 6 20 1
-3 -4 8 -7 24 -7 16 0 29 4 29 8 0 4 8 3 18 -2 11 -6 24 -6 35 0 11 7 17 7 17
0 0 -6 11 -6 29 -1 15 4 34 4 42 0 7 -5 21 -4 30 1 11 6 20 5 24 -1 4 -6 15
-6 31 0 14 6 23 7 21 2 -3 -4 8 -7 24 -7 16 0 29 3 29 7 0 4 11 3 24 -2 13 -5
27 -6 30 -2 10 9 60 8 67 -1 3 -4 12 -1 19 8 8 10 9 15 2 15 -6 0 -9 7 -6 15
8 19 -23 111 -49 150 -32 48 -98 104 -145 125 -37 17 -144 36 -177 32 -12 -2
-114 -2 -135 -1 -8 1 -56 0 -107 -1 -99 -2 -106 0 -133 55 -8 17 -23 38 -32
49 -9 10 -22 31 -28 47 -7 16 -16 29 -21 29 -5 0 -9 7 -9 15 0 9 -5 21 -10 28
-19 22 -100 152 -106 170 -3 9 -9 17 -14 17 -4 0 -10 8 -13 18 -3 9 -40 71
-82 137 -42 66 -81 132 -88 148 -6 15 -14 27 -18 27 -4 0 -12 14 -19 30 -7 17
-15 30 -19 30 -3 0 -12 15 -20 33 -8 17 -25 46 -38 63 -27 36 -24 50 18 84 17
14 48 42 68 64 20 21 61 64 91 95 49 52 109 118 180 203 14 16 35 40 48 54 13
13 20 24 17 24 -4 0 1 7 9 16 9 8 30 37 48 62 17 26 35 49 40 50 4 2 8 8 8 13
0 5 15 31 33 57 54 80 147 260 147 284 0 8 5 19 12 26 7 7 9 12 5 12 -4 0 -3
8 2 18 15 28 33 133 34 197 2 87 -56 238 -96 251 -10 3 -16 8 -13 11 7 7 -61
53 -96 65 -16 6 -28 13 -28 17 0 4 -6 8 -12 8 -7 1 -44 9 -83 18 -62 16 -347
30 -359 18z"/>
</g>
</svg>
